<svg width="15" height="20" viewBox="0 0 15 20" fill="none" xmlns="http://www.w3.org/2000/svg">
<path d="M7.5 0C5.5116 0.00245748 3.60531 0.831051 2.1993 2.30402C0.793282 3.77699 0.00235375 5.77405 7.97923e-06 7.85714C-0.00237354 9.55945 0.528403 11.2156 1.51092 12.5714C1.51092 12.5714 1.71546 12.8536 1.74887 12.8943L7.5 20L13.2539 12.8907C13.2839 12.8529 13.4891 12.5714 13.4891 12.5714L13.4898 12.5693C14.4718 11.214 15.0023 9.55866 15 7.85714C14.9976 5.77405 14.2067 3.77699 12.8007 2.30402C11.3947 0.831051 9.4884 0.00245748 7.5 0ZM7.5 10.7143C6.9606 10.7143 6.43331 10.5467 5.98481 10.2328C5.53631 9.91882 5.18675 9.4726 4.98033 8.95052C4.77391 8.42845 4.7199 7.85397 4.82513 7.29974C4.93037 6.74551 5.19011 6.23642 5.57153 5.83684C5.95294 5.43726 6.4389 5.16514 6.96794 5.0549C7.49697 4.94466 8.04534 5.00124 8.54368 5.21749C9.04202 5.43374 9.46797 5.79994 9.76764 6.2698C10.0673 6.73965 10.2273 7.29205 10.2273 7.85714C10.2264 8.61461 9.93874 9.34079 9.42747 9.8764C8.91621 10.412 8.22304 10.7133 7.5 10.7143Z" fill="#4CAF50"/>
</svg>
