<svg width="24" height="24" viewBox="0 0 24 24" fill="none" xmlns="http://www.w3.org/2000/svg">
<path d="M17.8665 24H19.6049C20.4847 24 21.2073 23.3015 21.312 22.4065L23.04 4.42019H17.8036V0H15.7405V4.42019H10.5356L10.8497 6.97408C12.6406 7.48704 14.3162 8.41473 15.3216 9.44065C16.8297 10.9904 17.8665 12.5948 17.8665 15.2142V24ZM0 22.9086V21.8281H15.7405V22.9086C15.7405 23.5089 15.2692 24 14.6828 24H1.05775C0.471273 24 0 23.5089 0 22.9086ZM15.7405 15.2688C15.7405 6.53752 0 6.53752 0 15.2688H15.7405ZM0.0209454 17.4625H15.73V19.6453H0.0209454V17.4625Z" fill="white"/>
</svg>
