<svg width="15" height="21" viewBox="0 0 15 21" fill="none" xmlns="http://www.w3.org/2000/svg">
<path d="M12.5004 12.0363V7.49691C12.5004 7.29441 12.6354 7.21003 12.8211 7.27753L13.8842 7.66567L14.593 7.91879C14.6568 7.93804 14.7118 7.97888 14.7487 8.0343C14.7857 8.08972 14.8023 8.15626 14.7955 8.22253V20.035C14.7955 20.305 14.6942 20.3725 14.4411 20.2882L12.7536 19.6638C12.6813 19.6347 12.6206 19.5825 12.581 19.5154C12.5413 19.4483 12.5248 19.3699 12.5342 19.2925V14.635C12.5443 14.5792 12.5323 14.5217 12.5008 14.4745C12.4694 14.4273 12.4209 14.3941 12.3655 14.3819L10.8298 13.8419H10.7286V18.6513C10.7286 18.82 10.6105 18.9044 10.4586 18.8538L9.96917 18.685L8.68676 18.2294C8.46738 18.145 8.43359 18.0775 8.43359 17.8413V6.0288C8.43359 5.77567 8.53485 5.69128 8.75422 5.77566L10.4417 6.40005C10.6442 6.40005 10.678 6.53503 10.678 6.75441V11.2938C10.678 11.3782 10.678 11.4288 10.7792 11.4625L12.3824 12.0532L12.5004 12.0363Z" fill="white"/>
<path d="M4.8891 8.57621L4.1297 8.84622C3.96095 8.84622 3.85965 8.8462 3.85965 8.6437V7.07434C3.85965 6.85496 3.85967 6.78745 4.09592 6.71995L6.84655 5.72433C7.06593 5.63996 7.18407 5.72434 7.18407 5.94371C7.18407 7.29371 7.18407 8.6437 7.18407 9.9937C7.17726 10.7521 6.95669 11.4933 6.54776 12.132C6.13883 12.7708 5.55813 13.2813 4.87221 13.605C4.22905 13.9392 3.49537 14.0576 2.77972 13.9425C2.40926 13.8753 2.05764 13.729 1.74893 13.5135C1.44022 13.2979 1.18169 13.0183 0.990979 12.6937C0.672033 12.1894 0.507722 11.6028 0.518429 11.0062C0.518429 9.03184 0.518429 7.04059 0.518429 5.04934C0.504566 4.35513 0.660225 3.66801 0.971924 3.04755C1.28362 2.42709 1.74195 1.89202 2.30717 1.48872C3.00028 0.953102 3.86243 0.683688 4.73718 0.729346C5.30377 0.747402 5.84795 0.955124 6.28244 1.31923C6.71692 1.68335 7.01653 2.18275 7.1334 2.73745C7.1499 2.92271 7.1499 3.10907 7.1334 3.29433C7.1334 3.56433 7.1334 3.85121 7.1334 4.12121C7.14399 4.17915 7.13259 4.23897 7.10137 4.28892C7.07015 4.33886 7.02141 4.37535 6.96469 4.39122L5.27719 4.98183C5.04094 5.0662 4.95655 4.98184 4.93967 4.76247V4.12121C4.92802 3.96121 4.89976 3.80286 4.85532 3.64871C4.83196 3.54675 4.78627 3.45121 4.72163 3.36897C4.65698 3.28674 4.575 3.21983 4.48144 3.17305C4.38788 3.12627 4.28506 3.10077 4.18048 3.0984C4.0759 3.09603 3.97212 3.11683 3.87654 3.15932C3.6291 3.23901 3.40691 3.38227 3.23219 3.57476C3.05747 3.76725 2.9364 4.00223 2.88097 4.25621C2.79356 4.56368 2.74811 4.88156 2.74594 5.20121C2.74594 6.80996 2.74594 8.41309 2.74594 10.0106C2.74811 10.3302 2.79356 10.6481 2.88097 10.9556C2.89575 11.0754 2.9416 11.1894 3.01404 11.286C3.08649 11.3826 3.18297 11.4586 3.29388 11.5063C3.4048 11.5541 3.52625 11.572 3.64624 11.5583C3.76622 11.5446 3.88053 11.4997 3.97778 11.4281C4.36199 11.2125 4.64669 10.8552 4.77096 10.4325C4.88579 10.0957 4.9428 9.74197 4.93967 9.3862L4.8891 8.57621Z" fill="white"/>
</svg>
