<svg width="12" height="14" viewBox="0 0 12 14" fill="none" xmlns="http://www.w3.org/2000/svg">
<path d="M5.81073 0.817972C6.36112 0.817972 6.88897 1.03342 7.27816 1.41692C7.66735 1.80042 7.88599 2.32055 7.88599 2.8629V3.27189H3.73547V2.8629C3.73547 2.32055 3.95411 1.80042 4.3433 1.41692C4.73249 1.03342 5.26034 0.817972 5.81073 0.817972ZM8.71609 3.27189V2.8629C8.71609 2.10361 8.41 1.37542 7.86513 0.838525C7.32027 0.301626 6.58128 0 5.81073 0C5.04018 0 4.30119 0.301626 3.75633 0.838525C3.21147 1.37542 2.90536 2.10361 2.90536 2.8629V3.27189H0V11.4516C0 11.8855 0.174914 12.3016 0.486264 12.6084C0.797613 12.9152 1.21989 13.0876 1.66021 13.0876H9.96125C10.4016 13.0876 10.8238 12.9152 11.1352 12.6084C11.4465 12.3016 11.6215 11.8855 11.6215 11.4516V3.27189H8.71609Z" fill="white"/>
</svg>
