<svg width="22" height="20" viewBox="0 0 22 20" fill="none" xmlns="http://www.w3.org/2000/svg">
<path d="M1.02458 20C0.942742 19.0589 0.869141 18.5188 0.869141 17.9869C0.869141 13.0115 0.869141 8.02783 0.869141 3.05238C0.869141 0.646484 1.50736 0.00818331 3.85597 0C8.5941 0 13.3322 0 18.0704 0C20.4681 0 21.1145 0.638299 21.1309 2.98691C21.1309 6.48936 21.1309 10 21.1309 13.5106C21.1309 15.5319 20.3945 16.2439 18.3487 16.2602C14.6907 16.2602 10.9837 16.3666 7.35845 16.2602C6.54871 16.1755 5.73078 16.3012 4.98387 16.6252C4.23695 16.9492 3.58637 17.4605 3.09498 18.1097C2.44927 18.7868 1.75747 19.4184 1.02458 20ZM11.0082 6.08838C12.6448 6.08838 14.2815 6.15385 15.9182 6.03928C16.3355 6.03928 16.7365 5.40098 17.113 5.05728C16.712 4.71358 16.2946 4.08347 15.9182 4.07529C12.6448 3.99346 9.37151 3.99346 6.09818 4.07529C5.68902 4.07529 5.27989 4.72177 4.91165 5.06547C5.30444 5.40098 5.68084 6.00655 6.09818 6.03928C7.74303 6.17022 9.37969 6.10475 11.0082 6.10475V6.08838ZM11.0082 9.15712C12.6448 9.15712 14.2815 9.22259 15.9182 9.10802C16.3355 9.10802 16.7365 8.46154 17.1048 8.11784C16.712 7.76596 16.3273 7.11948 15.9345 7.11129C12.6612 7.02946 9.38789 7.02946 6.11457 7.11129C5.7054 7.11129 5.29628 7.75778 4.92803 8.10966C5.31264 8.45336 5.68903 9.0671 6.10638 9.09984C7.72667 9.23895 9.36332 9.17349 11 9.17349L11.0082 9.15712ZM8.88053 12.1931C9.94631 12.2505 11.0144 12.2505 12.0802 12.1931C12.4239 12.1931 13.0131 11.563 12.964 11.3257C12.8903 10.9083 12.4239 10.2619 12.0966 10.2455C10.0181 10.1473 7.9395 10.1555 5.86094 10.2455C5.54179 10.2455 4.95254 10.8674 4.99346 11.1129C5.04092 11.3483 5.1446 11.5687 5.29564 11.7554C5.44668 11.942 5.64064 12.0894 5.86094 12.1849C6.863 12.2624 7.86915 12.2706 8.87234 12.2095L8.88053 12.1931Z" fill="white"/>
</svg>
