<svg width="20" height="21" viewBox="0 0 20 21" fill="none" xmlns="http://www.w3.org/2000/svg">
<path d="M15.5801 20.9819H17.0289C17.762 20.9819 18.3641 20.3999 18.4514 19.6541L19.8914 4.66543H15.5278V0.981934H13.8085V4.66543H9.47104L9.73286 6.79367C11.2252 7.22113 12.6216 7.99421 13.4594 8.84915C14.7161 10.1406 15.5801 11.4776 15.5801 13.6604V20.9819ZM0.691406 20.0724V19.172H13.8085V20.0724C13.8085 20.5727 13.4158 20.9819 12.927 20.9819H1.57286C1.08413 20.9819 0.691406 20.5727 0.691406 20.0724ZM13.8085 13.7059C13.8085 6.42986 0.691406 6.42986 0.691406 13.7059H13.8085ZM0.708861 15.534H13.7998V17.353H0.708861V15.534Z" fill="white"/>
</svg>
