<svg width="21" height="20" viewBox="0 0 21 20" fill="none" xmlns="http://www.w3.org/2000/svg">
<path d="M19.95 4.44444H13.65C13.3715 4.44444 13.1045 4.56151 12.9075 4.76988C12.7106 4.97826 12.6 5.26087 12.6 5.55556V8.88889H10.5V1.11111C10.5 0.816426 10.3894 0.533811 10.1925 0.325437C9.99555 0.117063 9.72848 0 9.45 0H1.05C0.771523 0 0.504451 0.117063 0.307538 0.325437C0.110625 0.533811 0 0.816426 0 1.11111V18.8889C0 19.1836 0.110625 19.4662 0.307538 19.6746C0.504451 19.8829 0.771523 20 1.05 20H19.95C20.2285 20 20.4955 19.8829 20.6925 19.6746C20.8894 19.4662 21 19.1836 21 18.8889V5.55556C21 5.26087 20.8894 4.97826 20.6925 4.76988C20.4955 4.56151 20.2285 4.44444 19.95 4.44444ZM6.3 3.33333H8.4V5.55556H6.3V3.33333ZM4.2 14.4444H2.1V12.2222H4.2V14.4444ZM4.2 10H2.1V7.77778H4.2V10ZM4.2 5.55556H2.1V3.33333H4.2V5.55556ZM8.4 14.4444H6.3V12.2222H8.4V14.4444ZM8.4 10H6.3V7.77778H8.4V10ZM17.85 14.4444H15.75V12.2222H17.85V14.4444ZM17.85 10H15.75V7.77778H17.85V10Z" fill="white"/>
</svg>
