<svg width="24" height="24" viewBox="0 0 24 24" fill="none" xmlns="http://www.w3.org/2000/svg">
<path fill-rule="evenodd" clip-rule="evenodd" d="M12 22.8C17.9646 22.8 22.8 17.9646 22.8 12C22.8 6.0354 17.9646 1.2 12 1.2C6.0354 1.2 1.2 6.0354 1.2 12C1.2 17.9646 6.0354 22.8 12 22.8ZM12 24C18.6276 24 24 18.6276 24 12C24 5.3724 18.6276 0 12 0C5.3724 0 0 5.3724 0 12C0 18.6276 5.3724 24 12 24Z" fill="#4CAF50"/>
<path fill-rule="evenodd" clip-rule="evenodd" d="M18.2237 18.5302C13.5243 18.0694 10.4888 18.0262 5.79005 18.5191C5.47376 18.5524 5.2307 18.8084 5.2307 19.1182C5.2307 19.285 5.30392 19.4431 5.42761 19.5527C7.99237 21.8079 9.93564 22.8269 11.8352 22.8333C13.7416 22.8397 15.7894 21.8289 18.5646 19.5364C18.6528 19.462 18.7163 19.365 18.7473 19.257C18.7784 19.1491 18.7757 19.0349 18.7396 18.9284C18.7035 18.8219 18.6355 18.7276 18.5439 18.657C18.4524 18.5864 18.3411 18.542 18.2237 18.5302ZM5.65529 17.3595C10.4525 16.8561 13.5773 16.9016 18.3511 17.37C18.707 17.4052 19.0443 17.538 19.3217 17.7521C19.5992 17.9663 19.8048 18.2524 19.9133 18.5756C20.0218 18.8988 20.0286 19.245 19.9328 19.5718C19.837 19.8985 19.6427 20.1917 19.3738 20.4155C16.5586 22.7417 14.2141 24.0087 11.8315 24C9.44213 23.9918 7.20104 22.7032 4.59135 20.4079C4.4045 20.2429 4.25555 20.0432 4.15381 19.8212C4.05206 19.5992 3.9997 19.3597 4 19.1176C3.99911 18.6827 4.1675 18.2628 4.47294 17.9382C4.77837 17.6137 5.19937 17.408 5.65529 17.3595Z" fill="#4CAF50"/>
<path d="M12.5 17.5L19 18.5L19.5 19V19.5L15.5 22.5L11 23.5L4.5 19.5L5 18.5L12.5 17.5Z" fill="#4CAF50"/>
<path fill-rule="evenodd" clip-rule="evenodd" d="M12.5 13.625C13.3951 13.625 14.2536 13.1904 14.8865 12.4168C15.5194 11.6432 15.875 10.594 15.875 9.5C15.875 8.40598 15.5194 7.35677 14.8865 6.58318C14.2536 5.8096 13.3951 5.375 12.5 5.375C11.6049 5.375 10.7464 5.8096 10.1135 6.58318C9.48058 7.35677 9.125 8.40598 9.125 9.5C9.125 10.594 9.48058 11.6432 10.1135 12.4168C10.7464 13.1904 11.6049 13.625 12.5 13.625ZM12.5 15C13.6935 15 14.8381 14.4205 15.682 13.3891C16.5259 12.3576 17 10.9587 17 9.5C17 8.04131 16.5259 6.64236 15.682 5.61091C14.8381 4.57946 13.6935 4 12.5 4C11.3065 4 10.1619 4.57946 9.31802 5.61091C8.47411 6.64236 8 8.04131 8 9.5C8 10.9587 8.47411 12.3576 9.31802 13.3891C10.1619 14.4205 11.3065 15 12.5 15Z" fill="#4CAF50"/>
<ellipse cx="12.5" cy="9.5" rx="3.5" ry="4.5" fill="#4CAF50"/>
</svg>
