<svg width="20" height="19" viewBox="0 0 20 19" fill="none" xmlns="http://www.w3.org/2000/svg">
<path d="M0.976708 18.4965H19.0233C19.7732 18.4965 20.2407 17.6881 19.8706 17.0356L10.8424 1.45301C10.7576 1.30443 10.635 1.18093 10.4871 1.09502C10.3391 1.00911 10.1711 0.963867 10 0.963867C9.82892 0.963867 9.66088 1.00911 9.51293 1.09502C9.36498 1.18093 9.24238 1.30443 9.15757 1.45301L0.129405 17.0356C-0.240681 17.6881 0.226796 18.4965 0.976708 18.4965ZM10.9788 15.5747H9.03096V13.6269H10.9788V15.5747ZM10.0049 11.6791C9.46922 11.6791 9.03096 11.2408 9.03096 10.7052V8.75735C9.03096 8.2217 9.46922 7.78344 10.0049 7.78344C10.5405 7.78344 10.9788 8.2217 10.9788 8.75735V10.7052C10.9788 11.2408 10.5405 11.6791 10.0049 11.6791Z" fill="white"/>
</svg>
