<svg width="22" height="18" viewBox="0 0 22 18" fill="none" xmlns="http://www.w3.org/2000/svg">
<path d="M14.2083 3.5122C15.2167 3.5122 16.0417 2.72195 16.0417 1.7561C16.0417 0.790244 15.2167 0 14.2083 0C13.2 0 12.375 0.790244 12.375 1.7561C12.375 2.72195 13.2 3.5122 14.2083 3.5122ZM4.58333 9.21951C2.01667 9.21951 0 11.1512 0 13.6098C0 16.0683 2.01667 18 4.58333 18C7.15 18 9.16667 16.0683 9.16667 13.6098C9.16667 11.1512 7.15 9.21951 4.58333 9.21951ZM4.58333 16.6829C2.84167 16.6829 1.375 15.278 1.375 13.6098C1.375 11.9415 2.84167 10.5366 4.58333 10.5366C6.325 10.5366 7.79167 11.9415 7.79167 13.6098C7.79167 15.278 6.325 16.6829 4.58333 16.6829ZM9.9 7.90244L12.1 5.79512L12.8333 6.49756C14.025 7.63902 15.5833 8.34146 17.5083 8.34146V6.58537C16.1333 6.58537 15.0333 6.05854 14.2083 5.26829L12.4667 3.6C12.0083 3.24878 11.55 3.07317 11 3.07317C10.45 3.07317 9.99167 3.24878 9.71667 3.6L7.15 6.05854C6.78333 6.40976 6.6 6.84878 6.6 7.28781C6.6 7.81463 6.78333 8.25366 7.15 8.51707L10.0833 10.9756V15.3659H11.9167V9.92195L9.9 7.90244ZM17.4167 9.21951C14.85 9.21951 12.8333 11.1512 12.8333 13.6098C12.8333 16.0683 14.85 18 17.4167 18C19.9833 18 22 16.0683 22 13.6098C22 11.1512 19.9833 9.21951 17.4167 9.21951ZM17.4167 16.6829C15.675 16.6829 14.2083 15.278 14.2083 13.6098C14.2083 11.9415 15.675 10.5366 17.4167 10.5366C19.1583 10.5366 20.625 11.9415 20.625 13.6098C20.625 15.278 19.1583 16.6829 17.4167 16.6829Z" fill="#4CAF50"/>
</svg>
